<svg xmlns="http://www.w3.org/2000/svg" viewBox="0 0 45 45"><defs><style>.cls-1{fill:#1b75bb;}.cls-2{fill:#26a9e0;}.cls-3{fill:#1ef465;}.cls-4{fill:#fff100;}</style></defs><g id="Layer_3" data-name="Layer 3"><polygon class="cls-1" points="22.5 9.07 22.5 42.81 2.06 32.59 2.06 6.8 22.5 9.07"/><polygon class="cls-2" points="42.94 6.8 42.94 32.39 22.5 42.81 22.5 9.07 42.94 6.8"/><polygon class="cls-3" points="42.94 6.8 22.5 9.08 2.06 6.8 22.45 5.89 42.94 6.8"/><path class="cls-4" d="M22.57,14.54c1,0,16.43-2.17,16.43-2.17V16.7l-5.13,1.08L34,37l-4.11,2.05.24-20.69-6.57.95Z"/><path class="cls-4" d="M7.17,12.37l15.4,2.17-1.11,4.81-9.18-1.17v4.05l6.62,1.11-1.56,3.91-5.06-.79V37.7L7.17,35.14Z"/></g></svg>