<svg xmlns="http://www.w3.org/2000/svg" viewBox="0 0 300 60"><defs><style>.cls-1{fill:#1b75bb;}.cls-2{fill:#26a9e0;}.cls-3{fill:#1ef465;}.cls-4{fill:#fff100;}.cls-5{font-size:31px;fill:#181919;stroke:#1ef465;stroke-miterlimit:10;stroke-width:0.25px;font-family:BrunoAce-Regular, Bruno Ace;}.cls-6{letter-spacing:-0.01em;}.cls-7{letter-spacing:-0.11em;}.cls-8{letter-spacing:-0.05em;}.cls-9{letter-spacing:-0.03em;}</style></defs><g id="Layer_3" data-name="Layer 3"><polygon class="cls-1" points="48.92 13.06 48.92 57.53 20.58 44.06 20.58 10.07 48.92 13.06"/><polygon class="cls-2" points="77.27 10.07 77.27 43.79 48.92 57.53 48.92 13.06 77.27 10.07"/><polygon class="cls-3" points="77.27 10.07 48.92 13.08 20.58 10.07 48.85 8.88 77.27 10.07"/><path class="cls-4" d="M49,20.27c1.43,0,22.79-2.85,22.79-2.85v5.7l-7.12,1.42.14,25.34-5.7,2.7.33-27.26-9.11,1.25Z"/><path class="cls-4" d="M27.66,17.42,49,20.27l-1.54,6.34L34.75,25.07V30.4l9.18,1.47L41.77,37l-7-1.05V50.79l-7.09-3.37Z"/><text class="cls-5" transform="translate(80.92 43.22)"><tspan class="cls-6">F</tspan><tspan x="25.42" y="0">un</tspan><tspan class="cls-7" x="73.96" y="0">T</tspan><tspan x="96.13" y="0">as</tspan><tspan class="cls-8" x="140.86" y="0">k</tspan><tspan x="161.42" y="0">e</tspan><tspan class="cls-9" x="184.29" y="0">r</tspan></text></g></svg>